<mxfile host="app.diagrams.net" agent="Mozilla/5.0 (Windows NT 10.0; Win64; x64) AppleWebKit/537.36 (KHTML, like Gecko) Chrome/129.0.0.0 Safari/537.36" version="24.7.17">
  <diagram id="6a731a19-8d31-9384-78a2-239565b7b9f0" name="Page-1">
    <mxGraphModel dx="1955" dy="716" grid="1" gridSize="10" guides="1" tooltips="1" connect="1" arrows="1" fold="1" page="1" pageScale="1" pageWidth="1169" pageHeight="827" background="none" math="0" shadow="0">
      <root>
        <mxCell id="0" />
        <mxCell id="1" parent="0" />
        <mxCell id="2" value="start" style="shape=mxgraph.flowchart.terminator;strokeWidth=2;gradientColor=none;gradientDirection=north;fontStyle=0;html=1;" parent="1" vertex="1">
          <mxGeometry x="260" y="60" width="120" height="30" as="geometry" />
        </mxCell>
        <mxCell id="7" style="fontStyle=1;strokeColor=#003366;strokeWidth=1;html=1;" parent="1" source="2" edge="1">
          <mxGeometry relative="1" as="geometry">
            <mxPoint x="320" y="130" as="targetPoint" />
          </mxGeometry>
        </mxCell>
        <mxCell id="40" value="end" style="shape=mxgraph.flowchart.terminator;strokeWidth=2;gradientColor=none;gradientDirection=north;fontStyle=0;html=1;" parent="1" vertex="1">
          <mxGeometry x="270" y="1080" width="120" height="30" as="geometry" />
        </mxCell>
        <mxCell id="43" value="" style="edgeStyle=elbowEdgeStyle;elbow=vertical;fontStyle=1;strokeColor=#003366;strokeWidth=1;html=1;" parent="1" edge="1">
          <mxGeometry width="100" height="100" as="geometry">
            <mxPoint x="330" y="1000" as="sourcePoint" />
            <mxPoint x="330" y="1080" as="targetPoint" />
          </mxGeometry>
        </mxCell>
        <mxCell id="vWq9GIfO5Oer3uCc4AvI-55" value="ввод х" style="shape=parallelogram;perimeter=parallelogramPerimeter;whiteSpace=wrap;html=1;fixedSize=1;" parent="1" vertex="1">
          <mxGeometry x="260" y="130" width="120" height="60" as="geometry" />
        </mxCell>
        <mxCell id="vWq9GIfO5Oer3uCc4AvI-56" value="" style="endArrow=classic;html=1;rounded=0;" parent="1" edge="1">
          <mxGeometry width="50" height="50" relative="1" as="geometry">
            <mxPoint x="319.5" y="190" as="sourcePoint" />
            <mxPoint x="320" y="230" as="targetPoint" />
          </mxGeometry>
        </mxCell>
        <mxCell id="vWq9GIfO5Oer3uCc4AvI-57" value="x - трёхзначное число?" style="rhombus;whiteSpace=wrap;html=1;" parent="1" vertex="1">
          <mxGeometry x="225" y="230" width="190" height="80" as="geometry" />
        </mxCell>
        <mxCell id="vWq9GIfO5Oer3uCc4AvI-58" value="" style="endArrow=classic;html=1;rounded=0;" parent="1" edge="1">
          <mxGeometry width="50" height="50" relative="1" as="geometry">
            <mxPoint x="415" y="270" as="sourcePoint" />
            <mxPoint x="520" y="320" as="targetPoint" />
            <Array as="points">
              <mxPoint x="520" y="270" />
            </Array>
          </mxGeometry>
        </mxCell>
        <mxCell id="vWq9GIfO5Oer3uCc4AvI-59" value="" style="endArrow=classic;html=1;rounded=0;" parent="1" edge="1">
          <mxGeometry width="50" height="50" relative="1" as="geometry">
            <mxPoint x="225" y="270" as="sourcePoint" />
            <mxPoint x="160" y="320" as="targetPoint" />
            <Array as="points">
              <mxPoint x="160" y="270" />
            </Array>
          </mxGeometry>
        </mxCell>
        <mxCell id="vWq9GIfO5Oer3uCc4AvI-60" value="да" style="text;html=1;align=center;verticalAlign=middle;resizable=0;points=[];autosize=1;strokeColor=none;fillColor=none;" parent="1" vertex="1">
          <mxGeometry x="170" y="230" width="40" height="30" as="geometry" />
        </mxCell>
        <mxCell id="vWq9GIfO5Oer3uCc4AvI-61" value="нет" style="text;html=1;align=center;verticalAlign=middle;resizable=0;points=[];autosize=1;strokeColor=none;fillColor=none;" parent="1" vertex="1">
          <mxGeometry x="460" y="230" width="40" height="30" as="geometry" />
        </mxCell>
        <mxCell id="vWq9GIfO5Oer3uCc4AvI-62" value="вывод&lt;div&gt;&quot;введите трёхзначное число&quot;&lt;/div&gt;" style="shape=parallelogram;perimeter=parallelogramPerimeter;whiteSpace=wrap;html=1;fixedSize=1;" parent="1" vertex="1">
          <mxGeometry x="420" y="320" width="190" height="60" as="geometry" />
        </mxCell>
        <mxCell id="vWq9GIfO5Oer3uCc4AvI-63" value="sumNum = x / 100 + x % 10 + x % 100 / 10" style="rounded=0;whiteSpace=wrap;html=1;" parent="1" vertex="1">
          <mxGeometry x="40" y="320" width="250" height="40" as="geometry" />
        </mxCell>
        <mxCell id="vWq9GIfO5Oer3uCc4AvI-64" value="" style="endArrow=classic;html=1;rounded=0;" parent="1" edge="1">
          <mxGeometry width="50" height="50" relative="1" as="geometry">
            <mxPoint x="160" y="360" as="sourcePoint" />
            <mxPoint x="160" y="410" as="targetPoint" />
          </mxGeometry>
        </mxCell>
        <mxCell id="vWq9GIfO5Oer3uCc4AvI-65" value="sumProizv = (x / 100) * (x % 10) * (x % 100 / 10)" style="rounded=0;whiteSpace=wrap;html=1;" parent="1" vertex="1">
          <mxGeometry x="30" y="410" width="280" height="40" as="geometry" />
        </mxCell>
        <mxCell id="vWq9GIfO5Oer3uCc4AvI-66" value="" style="endArrow=classic;html=1;rounded=0;" parent="1" edge="1">
          <mxGeometry width="50" height="50" relative="1" as="geometry">
            <mxPoint x="160" y="450" as="sourcePoint" />
            <mxPoint x="160" y="500" as="targetPoint" />
          </mxGeometry>
        </mxCell>
        <mxCell id="vWq9GIfO5Oer3uCc4AvI-67" value="sumProizv - трёхзначное число?" style="rhombus;whiteSpace=wrap;html=1;" parent="1" vertex="1">
          <mxGeometry x="57.5" y="730" width="215" height="80" as="geometry" />
        </mxCell>
        <mxCell id="vWq9GIfO5Oer3uCc4AvI-68" value="" style="endArrow=classic;html=1;rounded=0;exitX=1;exitY=0.5;exitDx=0;exitDy=0;" parent="1" source="vWq9GIfO5Oer3uCc4AvI-78" edge="1">
          <mxGeometry width="50" height="50" relative="1" as="geometry">
            <mxPoint x="272.5" y="540" as="sourcePoint" />
            <mxPoint x="330" y="590" as="targetPoint" />
            <Array as="points">
              <mxPoint x="330" y="550" />
            </Array>
          </mxGeometry>
        </mxCell>
        <mxCell id="vWq9GIfO5Oer3uCc4AvI-69" value="" style="endArrow=classic;html=1;rounded=0;exitX=0;exitY=0.5;exitDx=0;exitDy=0;" parent="1" source="vWq9GIfO5Oer3uCc4AvI-78" edge="1">
          <mxGeometry width="50" height="50" relative="1" as="geometry">
            <mxPoint x="57.5" y="540" as="sourcePoint" />
            <mxPoint x="22.5" y="590" as="targetPoint" />
            <Array as="points">
              <mxPoint x="23" y="550" />
            </Array>
          </mxGeometry>
        </mxCell>
        <mxCell id="vWq9GIfO5Oer3uCc4AvI-70" value="да" style="text;html=1;align=center;verticalAlign=middle;resizable=0;points=[];autosize=1;strokeColor=none;fillColor=none;" parent="1" vertex="1">
          <mxGeometry x="27.5" y="520" width="40" height="30" as="geometry" />
        </mxCell>
        <mxCell id="vWq9GIfO5Oer3uCc4AvI-71" value="нет" style="text;html=1;align=center;verticalAlign=middle;resizable=0;points=[];autosize=1;strokeColor=none;fillColor=none;" parent="1" vertex="1">
          <mxGeometry x="282.5" y="510" width="40" height="30" as="geometry" />
        </mxCell>
        <mxCell id="vWq9GIfO5Oer3uCc4AvI-73" value="вывод&lt;div&gt;сумма цифр числа - двузначное число&lt;br&gt;&lt;/div&gt;" style="shape=parallelogram;perimeter=parallelogramPerimeter;whiteSpace=wrap;html=1;fixedSize=1;" parent="1" vertex="1">
          <mxGeometry x="-110" y="590" width="260" height="60" as="geometry" />
        </mxCell>
        <mxCell id="vWq9GIfO5Oer3uCc4AvI-74" value="вывод&lt;div&gt;сумма цифр числа - не двузначное число&lt;br&gt;&lt;/div&gt;" style="shape=parallelogram;perimeter=parallelogramPerimeter;whiteSpace=wrap;html=1;fixedSize=1;" parent="1" vertex="1">
          <mxGeometry x="190" y="590" width="280" height="60" as="geometry" />
        </mxCell>
        <mxCell id="vWq9GIfO5Oer3uCc4AvI-75" value="" style="endArrow=none;html=1;rounded=0;entryX=0.5;entryY=1;entryDx=0;entryDy=0;" parent="1" edge="1">
          <mxGeometry width="50" height="50" relative="1" as="geometry">
            <mxPoint x="30" y="910" as="sourcePoint" />
            <mxPoint x="340" y="880" as="targetPoint" />
            <Array as="points">
              <mxPoint x="340" y="910" />
            </Array>
          </mxGeometry>
        </mxCell>
        <mxCell id="vWq9GIfO5Oer3uCc4AvI-77" value="" style="endArrow=classic;html=1;rounded=0;" parent="1" edge="1">
          <mxGeometry width="50" height="50" relative="1" as="geometry">
            <mxPoint x="164.5" y="680" as="sourcePoint" />
            <mxPoint x="164.5" y="730" as="targetPoint" />
          </mxGeometry>
        </mxCell>
        <mxCell id="vWq9GIfO5Oer3uCc4AvI-78" value="sumNum - двузначное число?" style="rhombus;whiteSpace=wrap;html=1;" parent="1" vertex="1">
          <mxGeometry x="67.5" y="510" width="215" height="80" as="geometry" />
        </mxCell>
        <mxCell id="vWq9GIfO5Oer3uCc4AvI-79" value="" style="endArrow=classic;html=1;rounded=0;" parent="1" edge="1">
          <mxGeometry width="50" height="50" relative="1" as="geometry">
            <mxPoint x="273.5" y="770" as="sourcePoint" />
            <mxPoint x="331" y="820" as="targetPoint" />
            <Array as="points">
              <mxPoint x="331.5" y="770" />
            </Array>
          </mxGeometry>
        </mxCell>
        <mxCell id="vWq9GIfO5Oer3uCc4AvI-80" value="" style="endArrow=classic;html=1;rounded=0;" parent="1" edge="1">
          <mxGeometry width="50" height="50" relative="1" as="geometry">
            <mxPoint x="55" y="770" as="sourcePoint" />
            <mxPoint x="20" y="820" as="targetPoint" />
            <Array as="points">
              <mxPoint x="20" y="770" />
            </Array>
          </mxGeometry>
        </mxCell>
        <mxCell id="vWq9GIfO5Oer3uCc4AvI-81" value="да" style="text;html=1;align=center;verticalAlign=middle;resizable=0;points=[];autosize=1;strokeColor=none;fillColor=none;" parent="1" vertex="1">
          <mxGeometry x="10" y="730" width="40" height="30" as="geometry" />
        </mxCell>
        <mxCell id="vWq9GIfO5Oer3uCc4AvI-82" value="нет" style="text;html=1;align=center;verticalAlign=middle;resizable=0;points=[];autosize=1;strokeColor=none;fillColor=none;" parent="1" vertex="1">
          <mxGeometry x="282.5" y="730" width="40" height="30" as="geometry" />
        </mxCell>
        <mxCell id="vWq9GIfO5Oer3uCc4AvI-83" value="" style="endArrow=none;html=1;rounded=0;entryX=0.5;entryY=1;entryDx=0;entryDy=0;" parent="1" edge="1">
          <mxGeometry width="50" height="50" relative="1" as="geometry">
            <mxPoint x="20" y="680" as="sourcePoint" />
            <mxPoint x="330" y="650" as="targetPoint" />
            <Array as="points">
              <mxPoint x="330" y="680" />
            </Array>
          </mxGeometry>
        </mxCell>
        <mxCell id="vWq9GIfO5Oer3uCc4AvI-85" value="вывод&lt;div&gt;произведение цифр числа - не трёхзначное число&lt;br&gt;&lt;/div&gt;" style="shape=parallelogram;perimeter=parallelogramPerimeter;whiteSpace=wrap;html=1;fixedSize=1;" parent="1" vertex="1">
          <mxGeometry x="200" y="820" width="280" height="60" as="geometry" />
        </mxCell>
        <mxCell id="vWq9GIfO5Oer3uCc4AvI-86" value="вывод&lt;div&gt;произведение цифр числа - трёхзначное число&lt;br&gt;&lt;/div&gt;" style="shape=parallelogram;perimeter=parallelogramPerimeter;whiteSpace=wrap;html=1;fixedSize=1;" parent="1" vertex="1">
          <mxGeometry x="-110" y="820" width="260" height="60" as="geometry" />
        </mxCell>
        <mxCell id="vWq9GIfO5Oer3uCc4AvI-87" value="" style="endArrow=none;html=1;rounded=0;exitX=0.535;exitY=1.017;exitDx=0;exitDy=0;exitPerimeter=0;" parent="1" source="vWq9GIfO5Oer3uCc4AvI-86" edge="1">
          <mxGeometry width="50" height="50" relative="1" as="geometry">
            <mxPoint x="280" y="960" as="sourcePoint" />
            <mxPoint x="30" y="910" as="targetPoint" />
          </mxGeometry>
        </mxCell>
        <mxCell id="vWq9GIfO5Oer3uCc4AvI-88" value="" style="endArrow=none;html=1;rounded=0;" parent="1" edge="1">
          <mxGeometry width="50" height="50" relative="1" as="geometry">
            <mxPoint x="20" y="680" as="sourcePoint" />
            <mxPoint x="20" y="650" as="targetPoint" />
          </mxGeometry>
        </mxCell>
        <mxCell id="vWq9GIfO5Oer3uCc4AvI-89" value="" style="endArrow=classic;html=1;rounded=0;exitX=0.5;exitY=1;exitDx=0;exitDy=0;" parent="1" source="vWq9GIfO5Oer3uCc4AvI-62" edge="1">
          <mxGeometry width="50" height="50" relative="1" as="geometry">
            <mxPoint x="550" y="870" as="sourcePoint" />
            <mxPoint x="330" y="1000" as="targetPoint" />
            <Array as="points">
              <mxPoint x="520" y="1000" />
            </Array>
          </mxGeometry>
        </mxCell>
        <mxCell id="vWq9GIfO5Oer3uCc4AvI-90" value="" style="endArrow=classic;html=1;rounded=0;" parent="1" edge="1">
          <mxGeometry width="50" height="50" relative="1" as="geometry">
            <mxPoint x="180" y="910" as="sourcePoint" />
            <mxPoint x="330" y="1000" as="targetPoint" />
            <Array as="points">
              <mxPoint x="180" y="1000" />
            </Array>
          </mxGeometry>
        </mxCell>
      </root>
    </mxGraphModel>
  </diagram>
</mxfile>
